<?xml version="1.0" encoding="UTF-8"?>
<!DOCTYPE svg PUBLIC "-//W3C//DTD SVG 1.1//EN" "http://www.w3.org/Graphics/SVG/1.1/DTD/svg11.dtd">
<!-- Creator: CorelDRAW -->
<svg xmlns="http://www.w3.org/2000/svg" xml:space="preserve" width="1.21533in" height="1.21533in" version="1.1" style="shape-rendering:geometricPrecision; text-rendering:geometricPrecision; image-rendering:optimizeQuality; fill-rule:evenodd; clip-rule:evenodd"
viewBox="0 0 38.42 38.42"
 xmlns:xlink="http://www.w3.org/1999/xlink"
 xmlns:xodm="http://www.corel.com/coreldraw/odm/2003">
 <defs>
  <style type="text/css">
   <![CDATA[
    .fil1 {fill:none}
    .fil0 {fill:#F94900}
   ]]>
  </style>
 </defs>
 <g id="Layer_x0020_1">
  <metadata id="CorelCorpID_0Corel-Layer"/>
  <path class="fil0" d="M26.4 16.29c0.22,0.12 0.64,0.85 0.73,1.03 0.64,1.41 0.51,3.03 -0.27,4.25 -0.74,1.15 -1.81,1.73 -2.98,2.35l-3.44 1.86c-0.77,0.4 -1.53,0.82 -2.29,1.23 -1.4,0.75 -2.95,1.56 -4.33,2.33 -0.05,0.03 -0.09,0.05 -0.14,0.08l-0.12 0.09c1.23,0.05 2.57,0 3.81,0 1.21,0 2.36,-0.07 3.51,-0.31 2.01,-0.41 3.96,-1.28 5.31,-2.28 2.3,-1.71 3.98,-4.17 4.1,-7.33 0.04,-1 -0.1,-2.47 -0.46,-3.31 -0.28,-1 -1.08,-2.28 -1.61,-2.91 -0.7,-0.82 -1.4,-1.47 -2.36,-2.11 -1.75,-1.17 -4.12,-2.09 -6.68,-2.3l-0.98 -0.06 -4.68 0 1.63 0.88c0.55,0.28 1.09,0.6 1.65,0.89 1.61,0.82 3.36,1.86 4.94,2.67 0.56,0.29 1.07,0.61 1.64,0.9 0.44,0.23 2.02,1.1 2.4,1.4 0.2,0.16 0.53,0.41 0.63,0.62zm-16.48 -1.97c0.12,0.05 0.35,0.37 0.46,0.5l0.88 1.03c0.77,0.87 1.39,1.97 1.4,3.35 0,1.94 -1.04,2.98 -1.87,3.95l-0.67 0.79c-0.24,0.26 -0.44,0.52 -0.67,0.79l-0.67 0.79c-0.21,0.27 -0.46,0.5 -0.65,0.79 0.17,-0.09 0.87,-0.76 1.07,-0.94l1.67 -1.57c0.13,-0.12 0.21,-0.22 0.34,-0.33 0.6,-0.53 1.45,-1.41 2.02,-1.91 0.53,-0.46 1.27,-1.06 1.5,-1.76 0.26,-0.77 -0.07,-1.52 -0.47,-1.93 -0.21,-0.21 -0.44,-0.44 -0.66,-0.64l-0.67 -0.63c-0.24,-0.25 -0.42,-0.4 -0.66,-0.64 -0.11,-0.11 -0.24,-0.21 -0.35,-0.31l-0.3 -0.32c-0.18,-0.09 -0.29,-0.23 -0.44,-0.4l-0.86 -0.79c-0.31,-0.28 -1.92,-1.89 -2.14,-1.95l0.88 1.06c0.07,0.09 0.16,0.19 0.23,0.27 0.11,0.12 0.61,0.69 0.64,0.81zm-1.72 0.78l0 8.57 0.81 -0.94c0.26,-0.31 1.38,-1.63 1.58,-1.94 0.24,-0.38 0.37,-0.77 0.44,-1.31 0.07,-1.35 -0.52,-1.97 -1.11,-2.66 -0.29,-0.34 -0.57,-0.68 -0.85,-1.03 -0.14,-0.18 -0.29,-0.33 -0.43,-0.52 -0.07,-0.09 -0.14,-0.18 -0.21,-0.26 -0.09,-0.1 -0.12,-0.16 -0.21,-0.24l-0.01 0.34zm1.41 -3.37c0.09,0.03 0.43,0.37 0.54,0.46l0.51 0.48c0.18,0.19 0.36,0.31 0.51,0.48 0.18,0.2 0.33,0.28 0.51,0.48l0.78 0.71c0.11,0.1 1.17,1.08 1.23,1.19 0.12,0.04 0.94,0.84 1.11,1 0.13,0.11 0.23,0.23 0.36,0.34 1.53,1.33 1.51,3.33 -0.01,4.7l-1.43 1.36c-0.37,0.35 -1.13,1.01 -1.45,1.35 -0.12,0.12 -0.25,0.21 -0.37,0.33l-1.44 1.35c-0.32,0.34 -1.22,1.13 -1.62,1.52 -0.11,0.11 -0.12,0.1 -0.17,0.21 0.17,-0.07 0.35,-0.24 0.49,-0.33l1.29 -1c0.29,-0.21 0.58,-0.43 0.86,-0.66 1.98,-1.56 4.04,-3.09 6.02,-4.63 0.51,-0.4 1.23,-0.85 1.26,-1.8 0.01,-0.47 -0.19,-0.86 -0.4,-1.13 -0.29,-0.36 -1.61,-1.35 -2.1,-1.71l-0.37 -0.29c-0.06,-0.06 -0.01,-0 -0.04,-0.05 -0.11,-0.04 -0.76,-0.55 -0.9,-0.67 -1.43,-1.12 -2.94,-2.24 -4.37,-3.36l-1.53 -1.17c-0.28,-0.19 -0.21,-0.09 -0.22,-0.06 0.06,0.01 0.07,0.03 0.12,0.09 0.04,0.04 0.08,0.09 0.12,0.14l0.49 0.46c0.07,0.07 0.2,0.14 0.23,0.23zm0.52 -1.48c0.19,0.1 0.33,0.24 0.52,0.37 0.16,0.12 0.33,0.26 0.49,0.37 1.55,1.17 3.22,2.54 4.75,3.66l1.89 1.48c0.12,0.03 0.38,0.26 0.47,0.34 0.15,0.12 0.28,0.21 0.45,0.34 1,0.78 1.66,1.93 1.19,3.29 -0.13,0.37 -0.39,0.8 -0.61,1.01 -0.49,0.46 -0.28,0.27 -0.86,0.73l-2.71 2.08c-0.32,0.24 -0.58,0.46 -0.89,0.69 -0.3,0.22 -0.61,0.46 -0.9,0.69l-0.9 0.69c-0.17,0.12 -0.32,0.25 -0.47,0.36 -0.16,0.12 -0.29,0.22 -0.45,0.34 -0.3,0.23 -0.59,0.45 -0.89,0.69l-1.77 1.38c0.2,-0.04 3.83,-2.4 4.11,-2.57l2.05 -1.31c0.67,-0.45 1.37,-0.86 2.03,-1.3 1.02,-0.67 2.09,-1.3 3.08,-1.96 0.37,-0.24 0.69,-0.43 0.93,-0.72 0.24,-0.29 0.48,-0.61 0.6,-1.08 0.3,-1.17 -0.29,-2.19 -1.21,-2.81 -0.11,-0.08 -0.43,-0.25 -0.48,-0.33 -0.17,-0.05 -1.16,-0.73 -1.42,-0.88 -1.38,-0.84 -2.78,-1.8 -4.17,-2.65 -0.93,-0.57 -1.83,-1.2 -2.77,-1.77 -0.4,-0.24 -2.57,-1.69 -2.79,-1.72 0.06,0.03 0.11,0.09 0.18,0.14 0.09,0.07 0.12,0.09 0.2,0.15l0.34 0.29zm1.07 -0.99l10.37 6.59c0.11,0.07 0.23,0.14 0.35,0.22 0.05,0.03 0.12,0.08 0.17,0.11l0.14 0.13c0.2,0.07 0.72,0.66 0.88,0.88 0.23,0.33 0.44,0.71 0.56,1.18 0.28,1.03 -0.01,2.09 -0.5,2.79 -0.84,1.2 -2.77,2.12 -4.04,2.97 -0.36,0.24 -0.73,0.46 -1.09,0.69 -0.36,0.23 -0.71,0.46 -1.07,0.68 -0.72,0.44 -1.39,0.91 -2.13,1.36 -0.73,0.44 -1.4,0.92 -2.13,1.36 -0.26,0.16 -2.01,1.26 -2.11,1.37 0.22,-0.01 1.99,-1.02 2.34,-1.2 0.4,-0.2 0.76,-0.41 1.15,-0.62l8.04 -4.33c0.46,-0.24 1.9,-1 2.27,-1.25 0.62,-0.43 1.26,-1.07 1.53,-1.99 0.49,-1.72 -0.34,-2.62 -0.38,-2.84 -0.09,-0.05 -0.12,-0.12 -0.18,-0.2 -0.7,-0.93 -2.29,-1.62 -3.28,-2.17 -1.27,-0.71 -2.52,-1.35 -3.79,-2.04 -1.18,-0.64 -2.61,-1.44 -3.79,-2.04 -0.94,-0.48 -1.95,-1.08 -2.84,-1.53 -0.16,-0.08 -0.83,-0.41 -0.92,-0.52 -0.07,0.03 -0.04,0.01 -0.07,0.04l0.49 0.33c0.03,0.03 0.03,0.03 0.04,0.04z"/>
  <rect class="fil1" x="-0" y="-0" width="38.42" height="38.42"/>
 </g>
</svg>
